<?xml version="1.0" encoding="UTF-8" ?>
<!DOCTYPE svg PUBLIC "-//W3C//DTD SVG 1.1//EN" "http://www.w3.org/Graphics/SVG/1.1/DTD/svg11.dtd">
<svg width="966pt" height="339pt" viewBox="0 0 966 339" version="1.1" xmlns="http://www.w3.org/2000/svg">
<g id="#ee572fff">
<path fill="#ee572f" opacity="1.00" d=" M 124.80 73.68 C 124.85 72.93 124.95 71.43 125.00 70.68 C 125.10 71.78 125.19 72.87 125.28 73.97 C 130.28 75.99 135.03 78.58 139.57 81.48 C 153.09 89.41 167.03 96.59 180.61 104.41 C 185.65 107.36 191.12 109.66 195.78 113.22 C 201.01 117.95 203.26 125.23 203.45 132.12 C 203.51 147.04 203.49 161.96 203.45 176.88 C 203.38 182.02 199.75 187.95 194.03 187.69 C 174.90 187.79 155.76 187.45 136.63 187.77 C 136.86 211.17 136.68 234.58 136.80 257.98 C 136.74 260.53 136.90 263.80 134.44 265.38 C 127.99 268.82 121.04 272.22 113.50 271.42 L 113.55 270.69 C 105.80 271.34 98.85 267.40 92.52 263.46 C 76.22 254.10 59.84 244.89 43.49 235.62 C 39.24 232.96 34.20 231.15 31.11 226.98 C 27.14 221.54 25.68 214.64 25.71 208.00 C 25.71 185.65 25.62 163.30 25.66 140.96 C 25.73 135.67 25.19 130.27 26.62 125.12 C 28.08 119.33 31.32 113.68 36.61 110.63 C 55.33 100.22 74.47 90.61 93.23 80.28 C 94.65 79.36 96.97 78.63 96.73 76.54 C 97.89 76.67 99.06 76.83 100.23 76.84 C 107.48 72.39 116.65 72.17 124.80 73.68 M 96.41 94.35 C 80.16 103.16 63.63 111.46 47.44 120.39 C 43.09 122.51 40.19 127.07 40.18 131.91 C 40.12 157.28 40.16 182.65 40.16 208.01 C 40.12 211.96 40.95 216.20 43.84 219.10 C 46.66 221.81 50.24 223.50 53.60 225.43 C 70.15 234.49 86.65 243.64 103.04 253.00 C 108.11 256.30 114.12 259.01 120.28 257.28 C 120.31 231.49 120.34 205.70 120.26 179.92 C 119.74 175.13 124.29 170.96 128.95 171.25 C 148.24 171.23 167.53 171.26 186.82 171.17 C 186.84 159.44 186.73 147.71 186.83 135.98 C 186.79 131.60 187.13 126.60 183.88 123.15 C 181.34 120.78 178.16 119.24 175.14 117.58 C 159.16 108.72 143.20 99.80 127.28 90.83 C 122.87 88.64 118.19 85.51 113.02 86.74 C 106.99 88.00 101.87 91.68 96.41 94.35 Z" />
<path fill="#ee572f" opacity="1.00" d=" M 104.04 102.16 C 109.24 99.45 115.44 99.20 121.11 100.25 C 125.05 100.95 128.26 103.50 131.67 105.41 C 146.83 114.27 162.34 122.48 177.69 131.01 C 172.84 134.01 167.76 136.62 162.91 139.62 C 150.54 132.44 138.25 125.12 125.70 118.25 C 122.70 116.63 119.86 114.64 116.60 113.56 C 112.91 112.56 109.52 114.81 106.39 116.42 C 95.66 122.45 84.73 128.12 73.90 133.97 C 70.96 135.58 67.43 136.75 65.61 139.77 C 64.41 141.59 64.42 143.83 64.40 145.93 C 64.47 162.62 64.47 179.31 64.44 196.01 C 64.49 198.51 64.42 201.17 65.62 203.46 C 66.98 205.84 69.30 207.43 71.42 209.08 C 66.95 211.63 62.52 214.24 57.91 216.54 C 54.42 213.60 51.27 209.73 50.88 205.00 C 50.26 193.67 50.76 182.31 50.70 170.97 C 50.43 160.98 50.49 150.99 50.49 141.00 C 50.50 136.25 51.90 130.84 56.29 128.30 C 71.89 119.01 88.30 111.20 104.04 102.16 Z" />
<path fill="#ee572f" opacity="1.00" d=" M 92.99 135.89 C 98.06 133.54 102.67 130.10 108.08 128.53 C 113.46 127.99 119.32 127.00 124.27 129.83 C 133.93 135.19 143.54 140.62 153.18 146.01 C 148.46 148.57 144.16 151.99 139.06 153.78 C 131.26 150.33 124.18 145.40 116.49 141.71 C 113.44 140.28 110.23 141.99 107.55 143.44 C 102.41 146.43 97.00 148.93 91.79 151.81 C 91.02 152.47 89.33 152.74 89.50 154.05 C 89.45 166.40 89.45 178.75 89.52 191.11 C 89.34 193.32 90.53 195.43 92.59 196.32 C 97.54 198.87 102.36 201.65 107.29 204.25 C 107.32 209.78 107.39 215.30 107.37 220.84 C 99.93 216.43 92.38 212.22 84.77 208.12 C 80.11 205.75 75.61 201.71 75.47 196.09 C 75.11 182.40 75.42 168.69 75.29 154.99 C 75.21 151.09 75.78 146.64 78.95 143.97 C 83.09 140.43 88.34 138.62 92.99 135.89 Z" />
<path fill="#ee572f" opacity="1.00" d=" M 151.90 204.38 C 168.52 204.33 185.14 204.20 201.75 204.36 C 202.06 210.94 203.25 218.00 200.05 224.11 C 198.49 227.62 195.62 230.41 192.26 232.22 C 178.83 239.49 165.27 246.53 151.86 253.82 C 151.79 237.34 152.07 220.86 151.90 204.38 Z" />
</g>
<g id="#000000fe">
<path fill="#000000" opacity="1.00" d=" M 412.35 76.37 C 416.86 76.41 421.37 76.43 425.89 76.34 C 426.05 90.25 426.26 104.16 425.96 118.07 C 431.89 112.58 436.68 106.00 442.39 100.30 C 443.24 99.18 444.71 99.26 445.97 99.19 C 450.53 99.07 455.08 99.24 459.64 99.11 C 459.62 93.06 459.48 87.01 459.62 80.97 C 464.15 79.27 468.72 77.69 473.36 76.31 C 473.46 84.68 473.41 93.05 473.38 101.41 C 478.51 99.63 484.15 98.55 489.41 100.50 C 498.83 103.09 505.79 112.22 506.00 121.96 C 506.26 131.02 506.31 140.12 506.01 149.18 C 505.84 149.42 505.51 149.89 505.34 150.13 C 501.09 150.39 496.83 150.15 492.57 150.24 C 492.29 141.15 492.64 132.06 492.40 122.97 C 492.44 117.96 488.18 112.95 482.97 113.22 C 478.14 113.03 473.34 117.07 473.45 122.05 C 473.31 131.44 473.48 140.84 473.39 150.23 C 463.53 150.19 453.66 150.14 443.80 150.22 C 439.61 143.91 435.50 137.54 431.47 131.13 C 429.69 133.11 427.64 134.90 426.23 137.19 C 425.44 141.47 426.06 145.89 425.88 150.23 C 421.40 150.19 416.92 150.19 412.45 150.26 C 412.18 125.64 412.27 101.00 412.35 76.37 M 441.12 121.06 C 447.10 130.61 453.24 140.07 459.39 149.51 C 459.79 133.25 459.43 116.98 459.56 100.71 C 453.34 107.43 447.24 114.26 441.12 121.06 Z" />
<path fill="#000000" opacity="1.00" d=" M 656.85 75.85 C 661.43 76.96 665.90 78.45 670.33 80.04 C 670.53 94.68 670.47 109.33 670.43 123.97 C 670.42 133.06 665.78 142.12 657.98 146.93 C 646.40 154.15 629.37 150.54 622.33 138.66 C 615.61 128.68 617.48 114.32 626.10 106.07 C 632.42 100.09 641.89 96.98 650.42 99.37 C 652.59 99.93 654.73 100.67 656.87 101.39 C 656.76 92.88 656.80 84.37 656.85 75.85 M 641.43 112.65 C 636.92 113.71 633.21 117.56 632.26 122.08 C 630.68 128.44 635.13 135.43 641.57 136.75 C 650.57 139.48 659.98 128.77 655.82 120.24 C 653.80 114.51 647.29 111.18 641.43 112.65 Z" />
<path fill="#000000" opacity="1.00" d=" M 270.91 81.00 C 275.45 79.33 280.02 77.77 284.60 76.23 C 284.79 84.54 284.71 92.86 284.64 101.17 C 289.31 100.13 294.17 98.63 298.95 99.96 C 305.97 101.40 312.14 106.23 315.27 112.66 C 317.23 116.80 317.57 121.45 317.55 125.96 C 317.53 134.07 317.71 142.17 317.49 150.27 C 312.94 150.21 308.39 150.23 303.85 150.22 C 303.76 141.13 303.93 132.03 303.80 122.94 C 304.02 118.09 300.00 113.24 295.02 113.24 C 289.61 112.65 284.62 117.56 284.71 122.91 C 284.60 132.03 284.82 141.16 284.65 150.28 C 280.15 150.22 275.65 150.22 271.16 150.24 C 271.00 127.16 271.42 104.07 270.91 81.00 Z" />
<path fill="#000000" opacity="1.00" d=" M 248.37 82.99 C 253.10 81.71 257.77 80.19 262.42 78.62 C 262.52 94.74 262.42 110.86 262.47 126.99 C 262.66 134.63 259.21 142.45 252.80 146.79 C 244.41 152.62 232.31 151.41 224.90 144.48 C 228.15 141.04 231.53 137.71 234.90 134.39 C 237.51 135.41 240.46 137.21 243.23 135.61 C 246.85 134.45 248.21 130.49 248.20 127.02 C 248.34 112.35 247.90 97.66 248.37 82.99 Z" />
<path fill="#000000" opacity="1.00" d=" M 396.20 101.14 C 400.22 98.87 404.83 98.25 409.31 97.49 C 409.50 102.11 409.42 106.75 409.41 111.38 C 401.78 111.92 394.54 117.51 393.61 125.36 C 393.18 133.64 393.68 141.95 393.46 150.24 C 388.91 150.20 384.37 150.19 379.83 150.24 C 379.96 141.43 379.29 132.59 380.19 123.81 C 381.15 114.14 387.54 105.41 396.20 101.14 Z" />
<path fill="#000000" opacity="1.00" d=" M 322.92 116.03 C 326.46 105.66 337.12 98.55 347.97 98.52 C 351.90 98.52 355.62 99.93 359.32 101.07 C 359.35 100.44 359.41 99.19 359.44 98.57 C 363.92 98.54 368.40 98.52 372.88 98.51 C 372.82 115.77 373.39 133.01 372.83 150.26 C 367.89 150.04 362.78 150.90 358.07 149.04 C 355.34 149.20 352.76 150.33 350.04 150.55 C 342.85 151.16 335.25 149.01 329.95 143.99 C 322.29 137.20 319.26 125.65 322.92 116.03 M 344.45 112.64 C 340.87 113.56 337.89 116.25 336.23 119.50 C 333.41 125.65 336.32 134.05 343.00 136.19 C 350.55 139.68 359.91 133.17 359.89 125.02 C 360.29 117.16 352.01 110.69 344.45 112.64 Z" />
<path fill="#000000" opacity="1.00" d=" M 514.27 110.36 C 521.14 99.96 535.81 95.40 547.15 100.99 C 547.43 100.44 548.00 99.36 548.28 98.82 C 552.66 98.21 557.11 98.62 561.52 98.50 C 561.52 115.75 561.49 132.99 561.49 150.24 C 557.13 150.02 552.66 150.61 548.36 149.89 C 547.98 149.55 547.21 148.87 546.83 148.52 C 541.32 150.68 535.22 151.36 529.46 149.84 C 520.00 147.68 512.40 139.52 510.53 130.06 C 509.08 123.36 510.38 116.04 514.27 110.36 M 532.20 112.91 C 527.76 114.33 524.43 118.36 523.77 122.97 C 522.63 129.46 527.63 136.05 534.12 136.97 C 542.63 138.67 550.67 129.34 547.79 121.15 C 546.03 114.69 538.54 110.78 532.20 112.91 Z" />
<path fill="#000000" opacity="1.00" d=" M 568.38 150.23 C 568.16 133.01 568.24 115.78 568.33 98.55 C 572.78 98.54 577.24 98.53 581.70 98.48 C 581.87 99.30 582.21 100.93 582.38 101.74 C 587.40 100.09 592.90 99.31 598.01 101.10 C 607.22 103.55 613.97 112.55 614.29 122.00 C 614.54 131.42 614.25 140.84 614.40 150.26 C 609.82 150.24 605.25 150.24 600.68 150.24 C 600.54 141.12 600.74 132.01 600.61 122.90 C 600.72 118.54 597.15 114.70 593.03 113.75 C 589.72 113.13 586.28 114.66 584.12 117.14 C 581.99 119.55 581.97 122.97 581.91 126.00 C 582.29 133.73 582.33 141.49 582.12 149.23 C 581.90 149.44 581.46 149.88 581.24 150.10 C 576.96 150.40 572.66 150.13 568.38 150.23 Z" />
<path fill="#000000" opacity="1.00" d=" M 887.04 166.59 C 892.18 164.86 897.25 162.91 902.43 161.27 C 902.82 171.29 902.80 181.32 902.43 191.34 C 909.73 188.29 918.06 186.51 925.74 189.35 C 938.18 192.71 946.97 205.26 946.96 217.98 C 947.00 223.92 944.78 229.66 941.66 234.63 C 936.88 241.95 928.59 246.49 920.07 247.79 C 907.14 249.14 893.58 241.36 889.00 229.02 C 887.72 225.14 886.90 221.08 886.97 216.98 C 887.02 200.18 886.93 183.38 887.04 166.59 M 915.41 203.49 C 910.33 204.41 905.37 207.56 903.59 212.60 C 899.93 220.34 905.68 230.33 913.94 231.83 C 922.31 234.01 931.45 226.55 931.06 217.94 C 931.58 209.72 923.38 202.67 915.41 203.49 Z" />
<path fill="#000000" opacity="1.00" d=" M 229.89 165.00 C 247.59 165.00 265.30 165.00 283.00 165.00 C 283.00 170.17 283.00 175.35 283.01 180.52 C 270.68 180.67 258.35 180.43 246.02 180.84 C 246.03 186.63 246.03 192.42 246.03 198.22 C 258.35 197.89 270.67 198.20 282.99 198.01 C 283.00 203.42 283.00 208.84 283.00 214.25 C 270.69 214.14 258.38 214.11 246.07 214.27 C 246.03 220.07 246.00 225.88 246.11 231.68 C 258.40 231.49 270.69 231.51 282.99 231.61 C 283.01 236.82 283.00 242.04 283.00 247.25 C 265.31 247.21 247.62 247.11 229.93 247.25 C 229.78 219.83 229.78 192.41 229.89 165.00 Z" />
<path fill="#000000" opacity="1.00" d=" M 752.93 165.00 C 758.42 165.00 763.91 164.99 769.41 165.00 C 769.45 176.67 769.50 188.34 769.30 200.00 C 779.89 200.00 790.49 200.00 801.10 200.00 C 800.95 188.34 801.09 176.67 801.02 165.01 C 806.59 165.00 812.17 164.98 817.75 165.02 C 817.95 192.42 817.75 219.81 817.88 247.21 C 812.27 247.25 806.66 247.17 801.05 247.19 C 801.07 236.74 800.97 226.29 801.08 215.84 C 790.49 215.79 779.90 215.53 769.31 215.93 C 769.56 226.35 769.22 236.77 769.61 247.19 C 764.05 247.16 758.49 247.12 752.93 247.16 C 752.84 219.78 752.80 192.39 752.93 165.00 Z" />
<path fill="#000000" opacity="1.00" d=" M 659.12 168.85 C 662.26 168.75 665.40 168.68 668.55 168.53 C 666.12 176.90 664.66 185.49 662.81 193.99 C 660.47 194.01 658.14 194.05 655.81 194.11 C 657.07 185.71 658.17 177.29 659.12 168.85 Z" />
<path fill="#000000" opacity="1.00" d=" M 415.90 191.72 C 421.32 190.06 426.68 188.23 432.00 186.31 C 431.99 206.61 432.01 226.91 432.00 247.22 C 426.68 247.21 421.36 247.16 416.04 247.32 C 416.10 228.79 415.86 210.25 415.90 191.72 Z" />
<path fill="#000000" opacity="1.00" d=" M 630.57 195.73 C 636.59 190.05 644.89 187.63 652.95 186.80 C 652.68 191.98 653.43 197.20 652.79 202.37 C 647.97 203.33 643.00 204.81 639.64 208.64 C 636.31 211.89 634.56 216.49 634.55 221.11 C 634.42 229.78 634.39 238.46 634.64 247.13 C 629.37 247.22 624.10 247.17 618.83 247.29 C 618.80 236.86 618.18 226.40 619.20 216.00 C 620.85 208.32 624.45 200.84 630.57 195.73 Z" />
<path fill="#000000" opacity="1.00" d=" M 676.07 200.09 C 678.51 192.10 686.90 187.12 694.98 187.00 C 702.04 186.95 709.12 187.03 716.19 187.00 C 716.24 192.52 716.39 198.03 716.45 203.55 C 708.44 203.96 700.41 203.21 692.42 203.92 C 691.92 204.86 691.44 205.79 690.96 206.72 C 691.57 207.52 692.19 208.31 692.81 209.11 C 698.51 208.94 704.72 209.01 709.44 212.70 C 715.46 216.88 719.03 224.58 717.62 231.87 C 716.34 239.56 709.90 245.89 702.35 247.51 C 692.97 248.63 683.44 247.70 674.00 248.00 C 673.99 242.54 674.00 237.09 673.99 231.64 C 681.99 231.22 690.02 231.65 698.02 231.29 C 699.78 231.39 701.98 229.94 701.31 227.99 C 700.94 224.83 697.18 226.00 695.02 225.71 C 688.29 226.05 681.68 222.55 677.95 217.01 C 675.05 211.94 674.08 205.65 676.07 200.09 Z" />
<path fill="#000000" opacity="1.00" d=" M 291.30 188.03 C 296.54 187.98 301.77 188.00 307.00 188.00 C 307.00 189.20 306.99 190.41 307.00 191.61 C 313.10 189.64 319.81 188.95 326.01 190.89 C 335.32 193.80 342.37 202.39 343.99 211.92 C 344.88 223.66 344.26 235.46 344.57 247.23 C 339.26 247.28 333.95 247.20 328.64 247.23 C 328.31 236.63 328.85 226.03 328.41 215.44 C 328.52 208.67 320.27 202.80 314.09 206.14 C 309.53 207.55 306.70 212.36 306.98 217.01 C 307.00 227.07 307.00 237.13 307.00 247.20 C 301.80 247.21 296.60 247.21 291.40 247.20 C 291.29 227.48 291.42 207.75 291.30 188.03 Z" />
<path fill="#000000" opacity="1.00" d=" M 350.12 208.04 C 354.52 193.22 372.17 184.29 386.75 189.29 C 393.87 191.18 399.70 196.44 403.48 202.62 C 408.12 210.96 407.88 220.81 407.87 230.06 C 408.03 240.58 407.32 252.53 399.28 260.32 C 394.26 266.25 386.58 268.96 379.05 269.75 C 371.28 269.71 363.42 267.08 357.71 261.69 C 361.52 258.15 364.62 253.96 368.35 250.35 C 372.11 252.71 376.60 255.19 381.15 253.48 C 386.26 252.27 389.78 248.07 391.91 243.49 C 387.36 244.95 382.86 247.04 378.00 247.04 C 369.35 246.68 360.65 242.92 355.22 236.04 C 348.99 228.37 346.67 217.42 350.12 208.04 M 376.45 203.53 C 370.27 204.51 364.88 209.63 364.07 215.91 C 363.35 223.35 369.48 230.78 377.02 231.17 C 384.52 231.91 391.40 225.37 392.03 218.07 C 392.41 210.00 384.57 202.37 376.45 203.53 Z" />
<path fill="#000000" opacity="1.00" d=" M 441.03 188.00 C 446.38 188.00 451.72 188.00 457.07 188.00 C 457.05 188.85 457.01 190.54 456.99 191.39 C 463.72 189.64 471.03 188.74 477.64 191.44 C 486.58 195.20 493.61 204.04 493.97 213.92 C 494.28 224.99 494.10 236.08 494.30 247.15 C 489.12 247.20 483.93 247.15 478.75 247.27 C 478.17 236.89 478.73 226.49 478.41 216.11 C 478.50 212.05 476.01 208.25 472.40 206.49 C 466.37 202.71 457.36 207.93 457.13 214.97 C 456.89 225.70 457.16 236.45 457.17 247.19 C 451.82 247.20 446.48 247.12 441.14 247.14 C 441.02 227.43 441.30 207.71 441.03 188.00 Z" />
<path fill="#000000" opacity="1.00" d=" M 499.68 206.43 C 505.00 193.21 520.68 185.42 534.41 189.35 C 545.57 191.64 553.39 201.56 556.39 212.09 C 558.42 201.34 566.86 192.03 577.59 189.52 C 591.25 185.18 607.43 193.02 612.58 206.40 C 615.54 212.38 615.14 219.15 614.97 225.62 C 600.88 225.62 586.80 225.57 572.72 225.62 C 575.97 229.55 580.70 232.64 585.99 232.29 C 589.87 232.38 593.07 230.04 596.10 227.96 C 599.89 231.24 603.22 235.02 607.06 238.25 C 601.07 244.32 592.55 247.85 584.00 247.52 C 575.74 246.91 567.46 243.21 562.30 236.58 C 559.54 233.40 558.12 229.40 556.72 225.51 C 542.60 225.70 528.48 225.65 514.37 225.58 C 517.37 229.47 521.94 232.46 527.01 232.30 C 531.00 232.44 534.59 230.39 537.69 228.07 C 541.31 231.42 544.97 234.72 548.46 238.21 C 542.85 244.47 534.34 247.64 526.04 247.58 C 518.45 247.03 510.81 244.06 505.60 238.36 C 497.39 230.18 495.41 217.03 499.68 206.43 M 514.50 210.02 C 522.84 209.98 531.18 210.03 539.53 209.98 C 536.26 206.43 531.97 203.42 526.99 203.26 C 522.02 203.40 517.68 206.40 514.50 210.02 M 572.85 210.07 C 581.17 209.95 589.48 210.07 597.80 209.94 C 594.47 206.34 590.15 203.24 585.05 203.23 C 580.18 203.55 575.98 206.50 572.85 210.07 Z" />
<path fill="#000000" opacity="1.00" d=" M 826.20 188.87 C 831.51 188.73 836.83 188.88 842.15 188.76 C 842.02 199.53 841.98 210.31 842.04 221.08 C 841.79 226.67 846.38 231.89 852.01 232.16 C 858.25 232.91 863.62 227.02 863.57 221.00 C 863.72 210.27 863.40 199.55 863.50 188.82 C 868.67 188.79 873.84 188.77 879.02 188.65 C 878.99 199.43 879.01 210.22 879.03 221.00 C 879.16 229.77 874.77 238.59 867.36 243.39 C 861.62 246.89 854.60 249.10 847.90 247.43 C 839.59 245.76 832.09 240.02 828.80 232.15 C 826.83 227.72 826.47 222.81 826.23 218.04 C 826.07 208.32 826.30 198.59 826.20 188.87 Z" />
</g>
</svg>
