<?xml version="1.0" encoding="UTF-8" ?>
<!DOCTYPE svg PUBLIC "-//W3C//DTD SVG 1.1//EN" "http://www.w3.org/Graphics/SVG/1.1/DTD/svg11.dtd">
<svg width="494pt" height="490pt" viewBox="0 0 494 490" version="1.1" xmlns="http://www.w3.org/2000/svg">
<g id="#7a4e4271">
<path fill="#7a4e42" opacity="0.44" d=" M 235.98 15.61 C 241.24 15.86 246.48 14.04 251.71 15.09 C 255.37 15.85 259.20 15.34 262.82 16.33 C 274.47 21.71 286.25 27.04 296.90 34.30 C 310.05 41.78 323.02 49.56 336.49 56.46 C 345.48 62.03 355.16 66.36 364.20 71.86 C 381.81 81.67 399.36 91.55 417.09 101.14 C 423.73 104.73 430.30 108.98 434.65 115.30 C 442.94 126.07 446.13 139.71 447.32 152.99 C 447.35 184.67 447.29 216.35 447.29 248.03 C 447.58 255.61 446.84 263.51 443.27 270.34 C 440.61 275.66 436.07 280.37 430.23 282.05 C 423.96 283.90 417.37 283.06 410.94 283.23 C 399.63 283.11 388.30 283.59 377.01 282.77 C 355.01 282.74 333.01 282.79 311.02 282.75 C 304.76 282.56 298.53 283.50 292.27 283.29 C 292.52 338.86 292.38 394.43 292.45 450.00 C 292.72 457.14 287.61 463.39 281.07 465.74 C 273.65 468.54 266.71 472.49 259.20 475.06 C 253.88 476.16 248.45 477.25 243.00 477.27 C 232.59 475.73 221.69 475.54 212.05 470.85 C 200.97 466.64 191.31 459.64 180.98 453.97 C 163.73 444.24 146.59 434.31 129.33 424.57 C 108.29 412.60 87.05 400.95 66.19 388.67 C 60.64 385.83 54.96 382.93 50.50 378.48 C 42.34 371.01 38.03 360.35 35.33 349.86 C 33.32 342.74 33.70 335.28 32.79 328.00 C 32.72 270.02 32.66 212.03 32.69 154.05 C 33.38 146.98 34.04 139.82 36.19 133.01 C 39.94 120.54 47.74 108.89 59.16 102.26 C 67.17 97.93 75.10 93.44 83.30 89.46 C 87.04 87.68 89.94 84.46 93.99 83.29 C 103.97 78.87 113.15 72.84 122.91 67.99 C 149.61 54.26 176.11 40.15 202.18 25.26 C 212.81 20.30 224.02 15.47 235.98 15.61 M 222.90 18.99 C 204.51 23.95 189.07 35.57 172.15 43.83 C 162.29 49.55 152.10 54.68 141.97 59.92 C 132.65 65.33 122.70 69.59 113.43 75.10 C 106.30 78.68 99.53 82.97 92.17 86.08 C 80.63 93.53 67.74 98.69 56.25 106.25 C 41.54 117.25 35.11 136.24 34.69 154.04 C 34.73 176.03 34.67 198.02 34.73 220.02 C 34.77 231.34 34.41 242.68 35.01 253.99 C 34.13 268.97 35.30 283.95 35.25 298.93 C 34.11 310.94 35.63 322.96 35.25 334.99 C 34.81 341.36 36.78 347.47 38.01 353.64 C 40.60 361.23 43.61 368.96 49.16 374.93 C 53.44 379.83 59.09 383.24 64.84 386.15 C 70.82 389.05 76.14 393.11 82.11 396.01 C 112.71 413.39 143.43 430.55 173.92 448.11 C 188.25 455.27 200.98 465.64 216.40 470.52 C 219.77 471.92 223.46 471.42 227.01 471.61 L 227.96 472.24 C 234.70 472.62 241.23 474.88 248.02 474.53 C 255.37 475.07 262.49 472.44 268.91 469.11 C 274.15 466.58 279.79 464.85 284.83 461.89 C 289.59 459.07 290.71 453.11 290.64 448.00 C 290.51 393.29 290.71 338.56 290.43 283.85 C 290.16 281.28 293.29 281.38 295.03 281.42 C 333.36 281.13 371.70 281.36 410.03 281.39 C 417.69 281.25 425.70 282.27 432.96 279.20 C 440.57 274.81 445.06 265.68 444.70 257.00 C 444.69 222.66 444.74 188.32 444.68 153.97 C 445.22 139.10 440.19 123.91 430.52 112.54 C 425.92 107.77 420.00 104.55 414.20 101.48 C 407.01 97.37 399.69 93.48 392.39 89.58 C 382.14 83.33 371.35 78.03 361.05 71.88 C 353.42 67.38 345.31 63.77 337.80 59.08 C 330.89 55.32 323.92 51.65 317.03 47.85 C 308.60 42.47 299.50 38.21 291.23 32.57 C 283.74 28.10 275.98 24.07 267.94 20.68 C 264.04 18.42 259.50 17.81 255.09 17.32 C 244.33 17.01 233.49 16.80 222.90 18.99 Z" />
<path fill="#7a4e42" opacity="0.44" d=" M 237.58 47.08 C 242.71 45.64 248.01 46.82 252.81 48.78 C 266.49 54.27 278.91 62.32 291.90 69.19 C 303.15 76.13 314.97 82.06 326.38 88.73 C 340.01 96.01 353.29 103.91 366.95 111.17 C 377.68 117.87 389.59 122.64 399.57 130.52 C 406.06 136.38 408.36 145.51 408.28 153.99 C 408.32 183.03 408.27 212.07 408.35 241.10 C 408.65 243.46 406.03 244.77 404.01 244.41 C 360.35 244.40 316.68 244.55 273.02 244.46 C 266.01 244.39 258.99 248.41 255.65 254.60 C 254.02 257.44 254.35 260.85 254.22 264.01 C 254.38 322.02 254.22 380.03 254.30 438.05 C 254.46 440.36 253.68 443.17 251.24 444.00 C 243.33 446.84 234.73 444.76 227.24 441.64 C 217.62 437.23 208.91 431.15 199.55 426.25 C 164.13 406.26 128.59 386.47 92.87 367.00 C 87.23 363.42 81.10 360.46 76.19 355.86 C 69.38 349.15 66.55 339.35 66.64 329.98 C 66.61 270.65 66.59 211.32 66.63 151.98 C 67.23 144.06 70.67 136.03 76.50 130.53 C 83.27 125.38 90.86 121.43 98.40 117.53 C 104.82 114.35 110.85 110.46 117.33 107.39 C 138.59 96.43 159.61 85.02 180.88 74.06 C 191.73 67.72 203.13 62.39 214.04 56.14 C 221.55 52.35 229.10 48.16 237.58 47.08 M 214.15 57.97 C 203.24 64.21 191.83 69.53 180.99 75.90 C 157.42 87.95 134.23 100.71 110.64 112.71 C 99.57 119.36 87.39 124.20 77.12 132.13 C 71.51 137.87 68.47 146.02 68.36 154.00 C 68.42 213.01 68.32 272.03 68.42 331.04 C 68.97 337.67 69.81 344.63 73.70 350.25 C 78.33 357.59 86.58 361.06 93.61 365.57 C 130.44 385.55 166.98 406.03 203.48 426.58 C 212.86 431.50 221.50 437.92 231.53 441.52 C 236.98 442.75 242.70 444.63 248.26 442.83 C 249.74 442.35 252.53 442.26 252.29 440.06 C 252.23 381.05 252.38 322.03 252.21 263.02 C 251.25 252.86 260.56 244.43 269.95 242.78 C 315.47 242.52 361.00 242.84 406.53 242.58 C 406.79 224.06 406.18 205.53 406.53 187.01 C 406.39 175.34 406.70 163.68 406.40 152.01 C 405.98 144.87 404.33 137.24 399.04 132.05 C 389.56 124.58 378.28 119.98 368.06 113.68 C 335.74 95.84 303.51 77.85 271.42 59.61 C 263.64 55.69 256.01 51.23 247.57 48.87 C 235.62 46.95 224.40 52.58 214.15 57.97 Z" />
<path fill="#7a4e42" opacity="0.44" d=" M 232.19 77.80 C 236.65 77.59 241.10 76.27 245.55 77.30 C 252.86 77.67 260.31 78.75 266.68 82.60 C 274.81 87.49 282.97 92.35 291.26 96.97 C 299.87 102.53 309.25 106.74 317.96 112.12 C 336.01 122.07 354.16 131.80 372.13 141.89 C 376.52 144.27 380.72 147.05 385.43 148.79 C 385.46 149.96 385.49 151.13 385.53 152.30 C 374.34 158.71 363.03 164.89 351.98 171.54 C 345.10 167.92 338.79 163.32 331.83 159.84 C 322.01 154.06 311.92 148.73 302.21 142.77 C 295.79 138.16 288.53 134.98 281.76 130.95 C 270.04 124.81 258.77 117.84 246.98 111.86 C 242.41 110.82 237.55 110.95 232.96 111.84 C 223.59 116.24 214.62 121.46 205.53 126.40 C 197.06 131.45 188.01 135.44 179.57 140.52 C 170.30 145.61 160.66 150.01 151.62 155.51 C 144.81 159.45 137.14 162.01 130.99 167.01 C 126.25 170.87 124.69 177.09 124.67 182.96 C 124.70 222.31 124.79 261.67 124.70 301.02 C 124.91 305.38 125.37 309.73 125.76 314.08 C 127.87 320.63 132.97 326.55 139.48 328.99 C 139.52 330.38 139.56 331.77 139.58 333.17 C 131.43 336.87 124.10 342.09 116.04 345.97 C 113.29 347.31 110.03 350.03 106.93 348.03 C 98.12 341.40 91.61 331.02 91.26 319.80 C 90.13 304.92 90.62 289.95 90.56 275.03 C 91.06 248.36 90.24 221.69 90.44 195.00 C 90.70 182.83 89.13 170.34 92.80 158.52 C 95.07 152.55 98.79 146.85 104.39 143.54 C 120.98 133.55 138.17 124.65 155.17 115.42 C 174.17 104.99 193.71 95.56 212.33 84.45 C 218.38 80.86 225.12 78.25 232.19 77.80 M 229.16 79.83 C 217.50 81.87 208.06 89.37 197.78 94.67 C 170.37 109.21 142.88 123.64 115.77 138.76 C 111.44 141.47 106.83 143.76 102.65 146.71 C 98.09 150.40 95.32 155.90 93.69 161.44 C 91.72 170.82 92.60 180.47 92.45 189.98 C 92.38 213.32 92.67 236.66 92.74 260.00 C 92.63 275.33 92.33 290.68 92.68 306.01 C 93.67 312.03 92.95 318.14 93.41 324.20 C 95.13 333.61 101.10 341.96 108.85 347.42 C 118.96 343.41 128.03 337.04 137.69 332.03 C 138.15 329.34 134.90 329.07 133.50 327.49 C 129.75 323.95 125.65 320.18 124.38 314.98 C 123.43 311.05 122.69 307.03 122.65 302.98 C 122.72 264.66 122.67 226.33 122.65 188.01 C 122.31 181.68 122.71 174.87 126.61 169.58 C 132.10 161.86 141.64 159.23 149.52 154.74 C 158.83 149.22 168.58 144.51 178.13 139.42 C 187.44 133.80 197.45 129.44 206.75 123.80 C 216.16 118.97 225.08 113.02 235.08 109.46 C 240.22 107.39 245.74 109.20 250.36 111.69 C 260.81 117.14 270.81 123.38 281.27 128.81 C 289.13 133.29 297.36 137.14 304.73 142.43 C 317.36 149.85 330.21 156.88 342.86 164.26 C 346.46 166.26 350.39 170.51 354.78 168.06 C 364.19 162.16 374.15 157.19 383.59 151.36 L 383.59 149.89 C 371.80 144.01 360.64 136.93 348.88 130.98 C 343.36 128.29 338.31 124.72 332.79 122.03 C 322.71 116.91 313.09 110.94 303.10 105.65 C 296.13 102.14 289.69 97.71 282.80 94.05 C 272.53 88.53 263.09 80.34 251.00 79.42 C 243.73 79.26 236.38 78.83 229.16 79.83 Z" />
<path fill="#7a4e42" opacity="0.44" d=" M 209.21 150.64 C 216.81 146.42 225.08 142.35 234.01 142.80 C 239.43 143.07 244.87 141.90 250.27 142.83 C 260.02 144.05 268.02 150.23 276.49 154.68 C 287.49 160.62 298.15 167.16 309.23 172.95 C 315.81 176.32 321.87 180.64 328.66 183.60 C 328.66 184.51 328.66 186.34 328.66 187.25 C 318.10 192.42 308.71 199.76 297.83 204.33 C 296.06 204.81 294.43 203.76 292.90 203.05 C 280.56 196.61 268.78 189.18 256.37 182.87 C 250.42 180.01 244.99 174.90 237.97 175.23 C 229.96 175.72 223.56 181.07 216.52 184.31 C 209.12 187.74 202.12 191.91 194.99 195.84 C 190.84 198.23 186.07 199.71 182.62 203.16 C 182.72 226.44 182.86 249.73 182.63 273.01 C 182.66 280.41 182.57 287.85 183.71 295.19 C 184.62 298.14 187.31 300.06 189.95 301.40 C 200.77 306.70 211.04 313.02 221.70 318.63 C 223.60 319.68 224.57 321.82 224.34 323.95 C 224.25 335.48 224.49 347.00 224.41 358.53 C 222.90 358.42 221.22 358.85 219.91 357.90 C 209.65 351.77 199.34 345.74 188.77 340.16 C 178.06 333.20 165.34 329.13 156.40 319.65 C 149.75 313.34 148.02 303.76 147.78 294.98 C 147.68 266.00 147.57 237.03 147.73 208.05 C 147.45 198.16 148.82 186.67 156.92 179.93 C 165.10 172.44 175.87 168.97 185.22 163.30 C 193.20 159.04 201.35 155.12 209.21 150.64 M 208.89 152.71 C 199.51 158.17 189.51 162.48 180.19 168.06 C 171.96 172.23 163.11 175.84 156.49 182.50 C 151.43 187.62 150.27 195.08 149.57 201.93 C 149.61 232.96 149.55 263.99 149.63 295.01 C 149.69 297.63 150.23 300.21 150.45 302.82 C 150.80 309.65 154.27 316.16 159.52 320.51 C 166.34 326.98 175.25 330.36 183.25 335.04 C 193.54 341.10 204.22 346.48 214.41 352.70 C 217.03 354.17 219.44 356.18 222.47 356.76 C 222.38 344.81 222.39 332.86 222.33 320.91 C 210.85 314.61 199.51 308.06 187.82 302.18 C 182.22 299.36 180.48 292.76 180.64 286.95 C 180.70 258.84 180.63 230.73 180.64 202.62 C 184.19 198.92 189.05 197.05 193.51 194.74 C 198.39 192.33 202.84 189.07 207.95 187.12 C 212.12 185.55 215.57 182.64 219.61 180.80 C 225.24 178.08 230.57 174.00 236.96 173.42 C 244.03 172.49 249.65 177.59 255.54 180.58 C 267.77 186.79 279.49 193.94 291.55 200.48 C 294.72 202.38 298.87 202.23 302.08 200.50 C 310.56 196.18 318.36 190.70 326.70 186.15 L 326.64 184.66 C 317.50 179.60 308.55 174.16 299.19 169.47 C 288.38 162.85 277.05 157.13 266.14 150.67 C 258.11 145.87 248.56 142.73 239.16 144.76 C 236.46 145.65 233.76 144.42 231.03 144.42 C 223.12 145.40 215.75 148.76 208.89 152.71 Z" />
<path fill="#7a4e42" opacity="0.44" d=" M 374.64 318.88 C 378.45 318.09 382.20 319.78 386.04 319.43 C 395.36 319.12 404.73 320.00 414.01 318.84 C 423.39 319.93 432.86 318.92 442.27 319.62 C 442.86 321.70 443.39 323.83 443.37 326.01 C 443.51 334.33 443.66 342.65 443.55 350.97 C 443.65 356.66 440.74 361.72 438.73 366.87 C 433.94 377.89 423.54 384.95 412.98 389.81 C 402.33 396.00 391.17 401.22 380.46 407.29 C 374.40 410.58 368.28 413.75 362.10 416.81 C 351.69 423.01 340.61 428.02 330.22 434.25 C 328.86 435.21 327.23 435.46 325.61 435.56 C 325.47 398.01 325.67 360.45 325.68 322.90 C 325.74 321.70 326.24 320.61 326.61 319.50 C 338.72 319.43 350.84 319.45 362.95 319.42 C 366.85 319.41 370.79 319.69 374.64 318.88 M 369.01 321.40 C 355.14 321.34 341.27 321.47 327.41 321.42 C 327.28 358.62 327.61 395.83 327.25 433.03 C 328.25 432.88 329.23 432.64 330.18 432.32 C 357.74 417.09 385.81 402.78 413.46 387.70 C 419.76 384.58 426.13 381.12 430.88 375.82 C 436.50 369.73 439.45 361.73 441.49 353.84 C 441.97 343.12 441.80 332.33 441.33 321.61 C 438.56 321.33 435.80 320.88 433.02 320.78 C 414.67 320.61 396.33 321.06 377.98 320.67 C 374.96 320.59 372.02 321.43 369.01 321.40 Z" />
</g>
<g id="#ee572fff">
<path fill="#ee572f" opacity="1.00" d=" M 222.90 18.99 C 233.49 16.80 244.33 17.01 255.09 17.32 C 259.50 17.81 264.04 18.42 267.94 20.68 C 275.98 24.07 283.74 28.10 291.23 32.57 C 299.50 38.21 308.60 42.47 317.03 47.85 C 323.92 51.65 330.89 55.32 337.80 59.08 C 345.31 63.77 353.42 67.38 361.05 71.88 C 371.35 78.03 382.14 83.33 392.39 89.58 C 399.69 93.48 407.01 97.37 414.20 101.48 C 420.00 104.55 425.92 107.77 430.52 112.54 C 440.19 123.91 445.22 139.10 444.68 153.97 C 444.74 188.32 444.69 222.66 444.70 257.00 C 445.06 265.68 440.57 274.81 432.96 279.20 C 425.70 282.27 417.69 281.25 410.03 281.39 C 371.70 281.36 333.36 281.13 295.03 281.42 C 293.29 281.38 290.16 281.28 290.43 283.85 C 290.71 338.56 290.51 393.29 290.64 448.00 C 290.71 453.11 289.59 459.07 284.83 461.89 C 279.79 464.85 274.15 466.58 268.91 469.11 C 262.49 472.44 255.37 475.07 248.02 474.53 C 241.23 474.88 234.70 472.62 227.96 472.24 L 227.01 471.61 C 223.46 471.42 219.77 471.92 216.40 470.52 C 200.98 465.64 188.25 455.27 173.92 448.11 C 143.43 430.55 112.71 413.39 82.11 396.01 C 76.14 393.11 70.82 389.05 64.84 386.15 C 59.09 383.24 53.44 379.83 49.16 374.93 C 43.61 368.96 40.60 361.23 38.01 353.64 C 36.78 347.47 34.81 341.36 35.25 334.99 C 35.63 322.96 34.11 310.94 35.25 298.93 C 35.30 283.95 34.13 268.97 35.01 253.99 C 34.41 242.68 34.77 231.34 34.73 220.02 C 34.67 198.02 34.73 176.03 34.69 154.04 C 35.11 136.24 41.54 117.25 56.25 106.25 C 67.74 98.69 80.63 93.53 92.17 86.08 C 99.53 82.97 106.30 78.68 113.43 75.10 C 122.70 69.59 132.65 65.33 141.97 59.92 C 152.10 54.68 162.29 49.55 172.15 43.83 C 189.07 35.57 204.51 23.95 222.90 18.99 M 237.58 47.08 C 229.10 48.16 221.55 52.35 214.04 56.14 C 203.13 62.39 191.73 67.72 180.88 74.06 C 159.61 85.02 138.59 96.43 117.33 107.39 C 110.85 110.46 104.82 114.35 98.40 117.53 C 90.86 121.43 83.27 125.38 76.50 130.53 C 70.67 136.03 67.23 144.06 66.63 151.98 C 66.59 211.32 66.61 270.65 66.64 329.98 C 66.55 339.35 69.38 349.15 76.19 355.86 C 81.10 360.46 87.23 363.42 92.87 367.00 C 128.59 386.47 164.13 406.26 199.55 426.25 C 208.91 431.15 217.62 437.23 227.24 441.64 C 234.73 444.76 243.33 446.84 251.24 444.00 C 253.68 443.17 254.46 440.36 254.30 438.05 C 254.22 380.03 254.38 322.02 254.22 264.01 C 254.35 260.85 254.02 257.44 255.65 254.60 C 258.99 248.41 266.01 244.39 273.02 244.46 C 316.68 244.55 360.35 244.40 404.01 244.41 C 406.03 244.77 408.65 243.46 408.35 241.10 C 408.27 212.07 408.32 183.03 408.28 153.99 C 408.36 145.51 406.06 136.38 399.57 130.52 C 389.59 122.64 377.68 117.87 366.95 111.17 C 353.29 103.91 340.01 96.01 326.38 88.73 C 314.97 82.06 303.15 76.13 291.90 69.19 C 278.91 62.32 266.49 54.27 252.81 48.78 C 248.01 46.82 242.71 45.64 237.58 47.08 Z" />
<path fill="#ee572f" opacity="1.00" d=" M 229.16 79.83 C 236.38 78.83 243.73 79.26 251.00 79.42 C 263.09 80.34 272.53 88.53 282.80 94.05 C 289.69 97.71 296.13 102.14 303.10 105.65 C 313.09 110.94 322.71 116.91 332.79 122.03 C 338.31 124.72 343.36 128.29 348.88 130.98 C 360.64 136.93 371.80 144.01 383.59 149.89 L 383.59 151.36 C 374.15 157.19 364.19 162.16 354.78 168.06 C 350.39 170.51 346.46 166.26 342.86 164.26 C 330.21 156.88 317.36 149.85 304.73 142.43 C 297.36 137.14 289.13 133.29 281.27 128.81 C 270.81 123.38 260.81 117.14 250.36 111.69 C 245.74 109.20 240.22 107.39 235.08 109.46 C 225.08 113.02 216.16 118.97 206.75 123.80 C 197.45 129.44 187.44 133.80 178.13 139.42 C 168.58 144.51 158.83 149.22 149.52 154.74 C 141.64 159.23 132.10 161.86 126.61 169.58 C 122.71 174.87 122.31 181.68 122.65 188.01 C 122.67 226.33 122.72 264.66 122.65 302.98 C 122.69 307.03 123.43 311.05 124.38 314.98 C 125.65 320.18 129.75 323.95 133.50 327.49 C 134.90 329.07 138.15 329.34 137.69 332.03 C 128.03 337.04 118.96 343.41 108.85 347.42 C 101.10 341.96 95.13 333.61 93.41 324.20 C 92.95 318.14 93.67 312.03 92.68 306.01 C 92.33 290.68 92.63 275.33 92.74 260.00 C 92.67 236.66 92.38 213.32 92.45 189.98 C 92.60 180.47 91.72 170.82 93.69 161.44 C 95.32 155.90 98.09 150.40 102.65 146.71 C 106.83 143.76 111.44 141.47 115.77 138.76 C 142.88 123.64 170.37 109.21 197.78 94.67 C 208.06 89.37 217.50 81.87 229.16 79.83 Z" />
<path fill="#ee572f" opacity="1.00" d=" M 208.89 152.71 C 215.75 148.76 223.12 145.40 231.03 144.42 C 233.76 144.42 236.46 145.65 239.16 144.76 C 248.56 142.73 258.11 145.87 266.14 150.67 C 277.05 157.13 288.38 162.85 299.19 169.47 C 308.55 174.16 317.50 179.60 326.64 184.66 L 326.70 186.15 C 318.36 190.70 310.56 196.18 302.08 200.50 C 298.87 202.23 294.72 202.38 291.55 200.48 C 279.49 193.94 267.77 186.79 255.54 180.58 C 249.65 177.59 244.03 172.49 236.96 173.42 C 230.57 174.00 225.24 178.08 219.61 180.80 C 215.57 182.64 212.12 185.55 207.95 187.12 C 202.84 189.07 198.39 192.33 193.51 194.74 C 189.05 197.05 184.19 198.92 180.64 202.62 C 180.63 230.73 180.70 258.84 180.64 286.95 C 180.48 292.76 182.22 299.36 187.82 302.18 C 199.51 308.06 210.85 314.61 222.33 320.91 C 222.39 332.86 222.38 344.81 222.47 356.76 C 219.44 356.18 217.03 354.17 214.41 352.70 C 204.22 346.48 193.54 341.10 183.25 335.04 C 175.25 330.36 166.34 326.98 159.52 320.51 C 154.27 316.16 150.80 309.65 150.45 302.82 C 150.23 300.21 149.69 297.63 149.63 295.01 C 149.55 263.99 149.61 232.96 149.57 201.93 C 150.27 195.08 151.43 187.62 156.49 182.50 C 163.11 175.84 171.96 172.23 180.19 168.06 C 189.51 162.48 199.51 158.17 208.89 152.71 Z" />
<path fill="#ee572f" opacity="1.00" d=" M 369.01 321.40 C 372.02 321.43 374.96 320.59 377.98 320.67 C 396.33 321.06 414.67 320.61 433.02 320.78 C 435.80 320.88 438.56 321.33 441.33 321.61 C 441.80 332.33 441.97 343.12 441.49 353.84 C 439.45 361.73 436.50 369.73 430.88 375.82 C 426.13 381.12 419.76 384.58 413.46 387.70 C 385.81 402.78 357.74 417.09 330.18 432.32 C 329.23 432.64 328.25 432.88 327.25 433.03 C 327.61 395.83 327.28 358.62 327.41 321.42 C 341.27 321.47 355.14 321.34 369.01 321.40 Z" />
</g>
</svg>
