<?xml version="1.0" encoding="UTF-8" ?>
<!DOCTYPE svg PUBLIC "-//W3C//DTD SVG 1.1//EN" "http://www.w3.org/Graphics/SVG/1.1/DTD/svg11.dtd">
<svg width="955pt" height="221pt" viewBox="0 0 955 221" version="1.1" xmlns="http://www.w3.org/2000/svg">
<g id="#200b0623">
<path fill="#200b06" opacity="0.14" d=" M 105.27 2.99 C 107.50 3.06 109.19 4.21 110.21 6.17 C 107.78 6.04 105.35 6.05 102.92 6.11 C 103.71 5.07 104.49 4.04 105.27 2.99 Z" />
</g>
<g id="#ee572fff">
<path fill="#ee572f" opacity="1.00" d=" M 112.73 3.12 L 114.07 7.94 L 115.23 3.04 C 115.05 4.37 114.86 5.70 114.67 7.03 C 119.94 9.34 124.96 12.15 129.82 15.22 C 147.08 25.03 164.56 34.46 181.88 44.17 C 188.97 48.16 192.04 56.67 192.43 64.41 C 192.54 79.57 192.47 94.73 192.45 109.89 C 192.38 115.03 188.73 120.98 183.01 120.69 C 163.88 120.78 144.75 120.45 125.63 120.77 C 125.86 144.18 125.68 167.58 125.80 190.98 C 125.76 193.56 125.89 196.83 123.41 198.42 C 116.96 201.77 110.10 205.24 102.58 204.42 L 102.44 203.64 C 94.99 204.36 88.24 200.61 82.14 196.82 C 65.63 187.32 49.02 178.00 32.45 168.60 C 28.19 165.92 23.13 164.13 20.06 159.92 C 16.13 154.47 14.66 147.59 14.71 140.97 C 14.71 118.65 14.62 96.33 14.66 74.01 C 14.73 68.71 14.18 63.28 15.63 58.11 C 17.13 52.07 20.63 46.21 26.27 43.24 C 46.33 32.22 66.74 21.86 86.79 10.81 C 86.14 10.51 85.48 10.23 84.82 9.95 L 87.40 8.95 C 87.15 9.36 86.64 10.19 86.39 10.61 C 91.66 8.38 97.05 5.90 102.92 6.11 C 105.35 6.05 107.78 6.04 110.21 6.17 C 110.98 6.30 112.53 6.55 113.31 6.68 C 113.12 5.50 112.92 4.31 112.73 3.12 M 93.17 23.21 C 77.97 31.37 62.71 39.42 47.42 47.41 C 43.16 49.87 38.64 51.86 34.55 54.60 C 30.78 57.02 29.00 61.69 29.14 66.05 C 29.20 91.39 29.09 116.73 29.20 142.06 C 29.18 146.17 30.61 150.47 33.91 153.09 C 37.41 155.76 41.37 157.71 45.20 159.84 C 62.17 169.17 79.10 178.57 95.90 188.21 C 99.91 190.58 104.74 191.46 109.28 190.21 C 109.32 167.48 109.31 144.74 109.30 122.01 C 109.37 118.03 108.95 114.01 109.54 110.05 C 110.61 106.55 114.28 104.05 117.93 104.25 C 137.23 104.23 156.52 104.26 175.82 104.16 C 175.75 90.76 175.90 77.36 175.72 63.97 C 175.82 59.65 173.38 55.49 169.48 53.59 C 153.48 44.56 137.33 35.77 121.37 26.67 C 116.71 24.11 112.13 21.23 107.01 19.71 C 102.12 18.73 97.39 21.02 93.17 23.21 Z" />
<path fill="#ee572f" opacity="1.00" d=" M 89.88 36.94 C 97.90 31.54 109.37 30.96 117.46 36.49 C 133.41 46.19 150.18 54.49 166.22 63.99 C 161.84 67.45 156.54 69.51 151.92 72.63 C 139.54 65.45 127.25 58.11 114.68 51.25 C 111.69 49.64 108.86 47.64 105.63 46.56 C 101.92 45.55 98.53 47.80 95.39 49.43 C 84.64 55.47 73.69 61.12 62.86 67.01 C 59.90 68.61 56.34 69.77 54.57 72.85 C 53.20 74.96 53.45 77.57 53.40 79.96 C 53.56 97.40 53.31 114.85 53.55 132.28 C 53.44 136.48 56.75 139.35 59.80 141.64 C 59.77 141.85 59.72 142.27 59.69 142.49 C 55.53 144.98 51.28 147.29 46.97 149.52 C 43.35 146.67 40.27 142.68 39.86 137.95 C 39.59 131.97 39.51 125.98 39.57 120.00 C 39.93 104.37 39.25 88.73 39.53 73.10 C 39.63 68.61 41.22 63.63 45.34 61.27 C 59.88 52.62 75.14 45.25 89.88 36.94 Z" />
<path fill="#ee572f" opacity="1.00" d=" M 91.73 63.71 C 95.10 61.62 99.02 60.99 102.92 61.07 C 106.98 60.39 111.10 61.43 114.60 63.52 C 123.74 68.75 132.99 73.79 142.13 79.01 C 137.44 81.59 133.13 85.00 128.04 86.78 C 120.08 83.25 112.87 78.15 104.96 74.50 C 101.74 73.39 98.63 75.33 95.89 76.80 C 91.74 79.27 87.34 81.27 83.09 83.56 C 81.53 84.41 79.85 85.13 78.55 86.36 C 78.16 95.23 78.63 104.13 78.44 113.01 C 78.49 117.22 78.20 121.45 78.64 125.65 C 79.07 128.84 82.66 129.79 85.04 131.19 C 88.86 133.05 92.45 135.35 96.27 137.20 C 96.34 142.75 96.40 148.29 96.36 153.83 C 88.55 149.18 80.58 144.81 72.61 140.46 C 68.97 138.36 65.46 135.26 64.73 130.91 C 63.94 125.80 64.52 120.60 64.23 115.46 C 64.41 109.48 64.34 103.50 64.24 97.53 C 64.90 90.38 62.15 80.98 69.03 76.06 C 76.27 71.39 84.27 68.01 91.73 63.71 Z" />
<path fill="#ee572f" opacity="1.00" d=" M 140.98 137.37 C 157.57 137.35 174.16 137.19 190.75 137.36 C 191.06 143.94 192.26 151.00 189.05 157.10 C 187.49 160.61 184.63 163.42 181.26 165.22 C 167.86 172.47 154.33 179.50 140.94 186.78 C 140.73 170.30 141.04 153.84 140.98 137.37 Z" />
</g>
<g id="#ffffffff">
<path fill="#ffffff" opacity="1.00" d=" M 401.37 9.37 C 405.87 9.42 410.38 9.46 414.88 9.33 C 414.91 16.22 414.76 23.12 415.13 30.01 C 415.10 32.01 415.10 34.00 415.11 36.00 C 415.31 41.01 414.82 46.01 414.86 51.01 C 421.38 45.51 426.09 37.98 432.52 32.40 C 437.84 31.89 443.21 32.30 448.55 32.18 C 448.76 26.10 448.39 20.02 448.64 13.95 C 453.18 12.31 457.71 10.62 462.37 9.34 C 462.49 17.74 462.33 26.14 462.44 34.53 C 473.45 29.21 487.72 34.68 492.76 45.70 C 495.73 51.99 495.25 59.23 495.00 66.00 C 495.04 71.75 495.74 77.64 494.63 83.31 C 490.27 83.14 485.92 83.21 481.57 83.25 C 481.33 74.16 481.59 65.07 481.42 55.99 C 481.49 50.58 476.49 45.29 470.89 46.28 C 467.07 46.47 464.03 49.36 462.56 52.72 C 462.21 62.89 462.53 73.06 462.38 83.23 C 452.53 83.18 442.69 83.13 432.85 83.23 C 428.55 76.96 424.57 70.49 420.42 64.13 C 418.65 66.36 416.24 68.14 414.92 70.69 C 414.63 74.88 415.39 79.07 414.81 83.25 C 410.35 83.17 405.89 83.19 401.44 83.26 C 401.21 58.63 401.25 34.00 401.37 9.37 M 430.13 54.04 C 435.99 63.80 442.64 73.08 448.36 82.92 C 448.81 66.49 448.48 50.03 448.50 33.59 C 442.47 40.49 436.22 47.19 430.13 54.04 Z" />
<path fill="#ffffff" opacity="1.00" d=" M 645.85 8.92 C 650.47 9.81 654.86 11.53 659.31 13.03 C 659.55 28.00 659.48 42.97 659.40 57.94 C 659.20 69.67 650.63 80.70 639.05 83.18 C 632.76 84.22 626.08 83.50 620.46 80.37 C 612.25 75.77 606.81 66.40 607.28 56.95 C 607.39 50.98 609.81 45.14 613.65 40.60 C 618.22 35.30 625.02 32.24 631.93 31.56 C 636.69 31.26 641.38 32.67 645.71 34.54 C 645.97 26.01 645.70 17.46 645.85 8.92 M 621.55 61.22 C 622.33 65.06 625.52 67.64 628.83 69.36 C 634.87 71.68 642.24 68.62 644.64 62.56 C 648.68 54.96 641.57 44.56 633.02 45.40 C 625.23 45.12 618.86 53.93 621.55 61.22 Z" />
<path fill="#ffffff" opacity="1.00" d=" M 260.12 13.93 C 264.59 12.28 269.09 10.74 273.63 9.27 C 273.74 17.55 273.73 25.82 273.62 34.10 C 278.02 33.39 282.43 31.67 286.93 32.75 C 294.47 34.00 301.23 39.07 304.43 46.02 C 306.88 51.35 306.51 57.31 306.55 63.01 C 306.53 69.77 306.72 76.52 306.48 83.27 C 302.10 83.22 297.72 83.15 293.35 83.33 C 292.04 73.61 293.42 63.68 292.64 53.90 C 291.82 48.65 286.15 44.94 280.98 46.48 C 277.36 47.30 274.92 50.56 273.70 53.89 C 273.63 63.69 273.82 73.49 273.63 83.29 C 269.14 83.21 264.66 83.21 260.17 83.25 C 260.12 60.14 260.18 37.04 260.12 13.93 Z" />
<path fill="#ffffff" opacity="1.00" d=" M 237.40 15.96 C 242.15 14.77 246.78 13.18 251.40 11.59 C 251.54 27.74 251.41 43.88 251.46 60.03 C 251.89 70.08 245.24 80.47 235.16 82.75 C 227.93 84.65 219.09 83.02 214.13 77.12 C 217.40 73.88 220.61 70.56 223.95 67.40 C 227.51 69.62 232.35 70.03 235.27 66.53 C 238.52 61.69 236.90 55.45 237.08 49.99 C 237.19 45.99 237.40 41.98 236.93 38.00 C 237.59 30.67 236.80 23.29 237.40 15.96 Z" />
<path fill="#ffffff" opacity="1.00" d=" M 385.91 33.80 C 389.73 31.62 394.16 31.33 398.40 30.57 C 398.46 35.21 398.42 39.84 398.40 44.48 C 390.68 44.76 383.52 50.66 382.57 58.44 C 382.24 66.70 382.67 74.98 382.44 83.25 C 377.90 83.20 373.36 83.18 368.83 83.25 C 369.03 73.14 367.98 62.93 369.79 52.92 C 372.09 44.62 378.03 37.40 385.91 33.80 Z" />
<path fill="#ffffff" opacity="1.00" d=" M 501.81 45.88 C 507.85 33.72 524.30 27.72 536.48 34.24 C 536.59 33.61 536.81 32.35 536.92 31.72 C 541.44 31.35 545.98 31.59 550.52 31.50 C 550.52 48.75 550.47 66.00 550.50 83.25 C 545.89 83.18 541.29 83.16 536.69 83.23 C 536.65 82.71 536.57 81.69 536.53 81.17 C 527.66 85.25 516.38 84.35 508.77 78.05 C 499.23 70.77 496.08 56.43 501.81 45.88 M 521.57 45.75 C 517.76 47.02 514.38 49.95 513.30 53.91 C 510.83 60.33 515.20 68.15 521.87 69.65 C 529.63 72.20 538.02 64.88 537.34 56.91 C 537.01 49.30 528.87 43.56 521.57 45.75 Z" />
<path fill="#ffffff" opacity="1.00" d=" M 557.34 31.56 C 561.94 31.56 566.55 31.46 571.16 31.58 C 571.17 32.38 571.18 33.97 571.19 34.77 C 576.92 32.77 583.22 32.30 588.91 34.72 C 595.23 37.01 599.87 42.56 602.25 48.71 C 602.72 51.15 603.38 53.57 603.35 56.08 C 603.43 65.14 603.31 74.20 603.40 83.26 C 598.83 83.24 594.26 83.23 589.70 83.24 C 589.55 74.17 589.70 65.10 589.63 56.03 C 589.82 51.63 586.23 47.82 582.13 46.74 C 577.81 45.98 573.09 48.63 571.60 52.77 C 569.92 58.40 571.60 64.22 571.20 69.95 C 570.93 74.25 571.69 78.68 570.91 82.90 C 566.49 83.65 561.87 82.95 557.39 83.24 C 557.16 66.02 557.23 48.79 557.34 31.56 Z" />
<path fill="#ffffff" opacity="1.00" d=" M 313.18 46.11 C 317.52 37.25 327.27 31.55 337.05 31.52 C 340.98 31.43 344.64 33.06 348.37 34.05 C 348.37 33.43 348.39 32.20 348.40 31.58 C 352.89 31.54 357.39 31.51 361.89 31.52 C 361.66 37.36 362.40 43.18 361.86 49.01 C 362.31 60.44 362.24 71.90 361.71 83.33 C 357.29 83.14 352.86 83.17 348.44 83.26 C 348.40 82.76 348.32 81.76 348.28 81.26 C 342.52 83.46 336.16 84.50 330.11 82.86 C 321.20 80.97 313.95 73.64 311.43 64.98 C 309.55 58.78 310.22 51.87 313.18 46.11 M 328.49 48.33 C 323.19 52.47 322.86 60.92 327.10 65.91 C 330.52 69.58 336.31 71.36 341.00 69.18 C 347.43 66.94 350.90 58.59 347.70 52.53 C 346.31 49.64 343.79 47.49 340.96 46.09 C 336.75 44.83 331.76 45.07 328.49 48.33 Z" />
<path fill="#ffffff" opacity="1.00" d=" M 876.08 99.54 C 881.24 97.93 886.24 95.85 891.42 94.29 C 891.84 104.32 891.77 114.36 891.44 124.39 C 897.77 121.76 904.77 119.88 911.61 121.48 C 915.07 122.33 918.44 123.58 921.63 125.18 C 933.40 132.64 939.45 148.56 933.82 161.65 C 928.41 176.23 910.48 184.99 895.85 179.06 C 884.31 175.41 876.23 163.98 876.00 151.98 C 876.02 134.50 875.89 117.02 876.08 99.54 M 899.32 138.18 C 893.23 141.20 889.66 149.08 892.39 155.50 C 894.17 160.88 899.36 164.79 905.00 165.14 C 913.13 165.89 920.94 158.20 920.04 150.01 C 920.03 140.22 907.82 132.98 899.32 138.18 Z" />
<path fill="#ffffff" opacity="1.00" d=" M 218.93 98.00 C 236.62 98.00 254.31 98.00 272.00 98.00 C 271.99 103.18 272.01 108.36 271.99 113.54 C 259.66 113.64 247.34 113.44 235.02 113.83 C 235.03 119.63 235.03 125.42 235.02 131.21 C 247.34 130.89 259.67 131.22 271.99 131.00 C 272.01 136.42 272.00 141.83 271.99 147.24 C 259.70 147.14 247.40 147.12 235.11 147.26 C 235.02 153.07 234.96 158.89 235.15 164.70 C 247.43 164.49 259.72 164.48 272.00 164.64 C 271.99 169.84 272.01 175.04 272.00 180.24 C 254.31 180.23 236.63 180.10 218.95 180.26 C 218.79 152.84 218.73 125.41 218.93 98.00 Z" />
<path fill="#ffffff" opacity="1.00" d=" M 741.95 98.00 C 747.43 98.00 752.91 97.99 758.40 98.01 C 758.43 109.67 758.54 121.33 758.26 132.99 C 768.88 133.02 779.50 132.99 790.13 133.00 C 789.91 121.34 790.11 109.67 790.02 98.01 C 795.59 98.00 801.17 97.97 806.75 98.04 C 806.95 125.41 806.72 152.80 806.91 180.17 C 801.28 180.30 795.65 180.15 790.03 180.17 C 790.13 169.73 789.91 159.29 790.11 148.85 C 779.51 148.78 768.90 148.52 758.30 148.94 C 758.61 159.33 758.15 169.73 758.65 180.11 C 753.07 180.26 747.50 180.08 741.93 180.16 C 741.85 152.77 741.77 125.38 741.95 98.00 Z" />
<path fill="#ffffff" opacity="1.00" d=" M 648.11 101.87 C 651.26 101.72 654.42 101.73 657.58 101.52 C 655.09 109.87 653.66 118.49 651.82 127.00 C 649.50 126.99 647.18 127.04 644.87 127.13 C 645.98 118.72 647.24 110.32 648.11 101.87 Z" />
<path fill="#ffffff" opacity="1.00" d=" M 405.12 124.53 C 410.53 123.13 415.77 121.17 421.02 119.28 C 420.97 139.59 421.02 159.89 420.99 180.20 C 415.65 180.24 410.30 180.13 404.96 180.32 C 405.28 161.73 404.55 143.11 405.12 124.53 Z" />
<path fill="#ffffff" opacity="1.00" d=" M 665.88 130.96 C 669.25 123.86 677.33 119.78 685.01 119.98 C 691.73 120.01 698.45 120.00 705.18 120.00 C 705.25 125.50 705.39 130.99 705.44 136.49 C 697.44 137.14 689.36 135.98 681.40 137.02 C 680.91 137.91 680.43 138.80 679.95 139.68 C 680.56 140.50 681.18 141.32 681.81 142.15 C 685.29 142.19 688.86 141.83 692.26 142.79 C 701.39 145.12 708.21 154.75 706.72 164.17 C 705.57 173.69 696.45 181.15 686.97 181.01 C 678.98 180.99 670.99 181.00 663.00 181.00 C 662.99 175.56 663.02 170.11 662.99 164.67 C 671.27 164.13 679.60 164.75 687.87 164.20 C 690.66 164.16 691.28 160.02 688.94 158.91 C 684.75 158.47 680.38 159.17 676.37 157.51 C 670.99 155.31 666.10 150.87 664.91 144.98 C 663.30 140.40 663.98 135.34 665.88 130.96 Z" />
<path fill="#ffffff" opacity="1.00" d=" M 280.31 121.04 C 285.54 120.96 290.77 121.01 296.00 121.00 C 296.00 121.92 296.00 123.76 296.00 124.67 C 304.58 121.59 314.98 121.89 322.37 127.71 C 327.79 131.51 331.25 137.62 332.91 143.92 C 333.93 155.98 333.22 168.10 333.59 180.18 C 328.28 180.35 322.97 180.15 317.66 180.23 C 317.29 169.53 317.89 158.82 317.38 148.13 C 317.46 142.89 312.66 139.26 308.03 138.04 C 302.43 138.07 296.67 141.98 296.03 147.86 C 295.94 158.64 296.03 169.42 296.00 180.19 C 290.84 180.25 285.69 180.10 280.54 180.32 C 280.11 160.56 280.52 140.80 280.31 121.04 Z" />
<path fill="#ffffff" opacity="1.00" d=" M 353.93 124.01 C 360.74 120.89 368.76 119.71 375.91 122.37 C 383.01 124.20 388.67 129.55 392.51 135.60 C 397.38 144.56 396.85 155.05 396.86 164.92 C 396.88 173.52 396.22 182.76 391.11 190.02 C 387.23 194.98 382.30 199.55 376.00 201.07 C 366.07 204.70 354.32 201.85 346.71 194.61 C 350.75 191.25 353.52 186.69 357.52 183.31 C 361.09 185.90 365.71 188.15 370.16 186.46 C 375.21 185.24 378.91 181.16 380.80 176.46 C 375.66 178.25 370.43 180.62 364.85 179.96 C 359.01 178.99 353.01 177.25 348.49 173.26 C 341.09 167.47 337.04 157.77 337.57 148.50 C 338.26 138.17 344.56 128.49 353.93 124.01 M 354.12 155.67 C 356.50 160.56 361.44 164.36 367.04 164.20 C 372.61 164.38 377.40 160.45 379.86 155.70 C 383.77 147.67 377.30 137.65 368.79 136.54 C 358.94 135.09 349.66 146.35 354.12 155.67 Z" />
<path fill="#ffffff" opacity="1.00" d=" M 430.02 121.00 C 435.38 121.00 440.74 121.00 446.10 121.00 C 446.05 121.86 445.95 123.58 445.91 124.45 C 452.90 122.51 460.60 121.72 467.42 124.75 C 475.97 128.75 482.63 137.33 482.99 146.95 C 483.25 158.01 483.10 169.07 483.31 180.13 C 478.13 180.25 472.95 180.09 467.78 180.29 C 466.90 168.65 468.26 156.93 466.97 145.32 C 465.05 141.38 461.26 138.66 456.96 137.95 C 453.60 138.75 449.94 139.89 447.87 142.86 C 446.10 145.56 445.87 148.88 445.98 152.02 C 446.19 161.40 446.00 170.78 446.17 180.16 C 440.81 180.23 435.45 180.13 430.09 180.12 C 430.08 160.42 430.29 140.70 430.02 121.00 Z" />
<path fill="#ffffff" opacity="1.00" d=" M 511.10 121.87 C 515.69 120.65 520.44 121.60 524.94 122.77 C 532.91 124.87 539.17 131.17 542.81 138.37 C 543.72 140.62 544.51 142.92 545.48 145.15 C 547.02 135.93 553.47 127.89 561.94 124.07 C 565.52 122.61 569.32 121.83 573.12 121.19 C 582.39 121.20 591.84 125.05 597.62 132.50 C 600.79 136.73 602.87 141.75 603.87 146.93 C 604.17 150.82 604.03 154.74 603.93 158.64 C 589.89 158.58 575.86 158.60 561.83 158.60 C 564.88 162.68 569.75 165.57 574.96 165.30 C 578.78 165.33 582.14 163.27 584.97 160.92 C 588.79 164.02 592.07 168.06 596.04 171.15 C 590.21 177.39 581.58 180.75 573.10 180.55 C 564.80 179.90 556.44 176.25 551.28 169.54 C 548.43 166.39 547.17 162.29 545.63 158.43 C 531.83 158.72 518.01 158.77 504.22 158.44 C 503.47 159.94 505.57 160.79 506.35 161.78 C 512.02 166.74 521.28 166.37 526.50 160.95 C 530.18 164.37 534.05 167.58 537.39 171.34 C 532.17 177.07 524.51 180.10 516.87 180.58 C 506.12 180.79 495.61 174.95 490.18 165.65 C 485.80 157.46 485.29 147.42 488.91 138.87 C 492.93 130.03 501.37 123.16 511.10 121.87 M 503.64 143.05 C 511.89 142.97 520.14 143.01 528.39 143.02 C 525.38 139.21 520.90 136.59 516.03 136.21 C 511.15 136.54 506.57 139.17 503.64 143.05 M 561.93 143.11 C 570.19 142.92 578.46 143.06 586.73 142.98 C 584.28 140.39 581.58 137.76 578.00 136.91 C 572.01 134.77 565.62 138.46 561.93 143.11 Z" />
<path fill="#ffffff" opacity="1.00" d=" M 815.17 121.92 C 820.49 121.61 825.82 121.97 831.15 121.75 C 830.98 132.16 831.06 142.58 831.00 153.00 C 830.89 155.26 831.49 157.45 832.13 159.60 C 834.03 161.85 836.04 164.37 839.17 164.82 C 844.40 166.55 849.54 163.01 851.84 158.45 C 852.15 156.68 852.61 154.91 852.63 153.10 C 852.59 142.71 852.49 132.32 852.47 121.92 C 857.65 121.67 862.84 121.83 868.02 121.65 C 867.98 133.13 868.04 144.60 868.00 156.08 C 867.46 163.91 863.40 171.50 856.94 176.02 C 850.96 179.80 843.56 182.25 836.52 180.33 C 826.20 178.25 817.52 169.52 816.01 159.04 C 814.34 146.74 815.63 134.29 815.17 121.92 Z" />
</g>
<g id="#0d04020e">
<path fill="#0d0402" opacity="0.05" d=" M 55.00 93.07 C 54.97 88.02 54.73 82.96 55.39 77.94 C 56.05 80.68 57.07 83.32 57.88 86.01 C 58.62 90.49 57.39 95.13 58.75 99.54 C 62.42 95.94 61.74 89.94 61.11 85.24 C 61.55 84.94 62.45 84.34 62.90 84.04 C 63.35 88.54 62.02 93.35 64.24 97.53 C 64.34 103.50 64.41 109.48 64.23 115.46 C 62.31 119.42 63.33 123.89 62.73 128.11 C 60.19 124.30 61.26 119.62 60.66 115.36 C 59.98 114.78 59.28 114.24 58.57 113.72 C 60.08 120.34 58.35 127.02 55.45 133.00 C 54.44 119.73 54.96 106.37 55.00 93.07 Z" />
<path fill="#0d0402" opacity="0.05" d=" M 78.55 86.36 C 79.85 85.13 81.53 84.41 83.09 83.56 C 84.11 86.29 81.21 88.31 81.22 90.97 C 80.65 98.40 82.54 105.68 83.21 113.04 C 83.42 117.49 87.61 120.14 89.03 124.09 C 88.47 126.82 86.84 129.13 85.04 131.19 C 82.66 129.79 79.07 128.84 78.64 125.65 C 78.20 121.45 78.49 117.22 78.44 113.01 C 78.63 104.13 78.16 95.23 78.55 86.36 Z" />
</g>
<g id="#fefefefe">
<path fill="#fefefe" opacity="1.00" d=" M 620.73 127.72 C 626.65 122.77 634.41 120.46 642.01 119.88 C 641.73 125.05 642.07 130.21 642.12 135.37 C 635.45 136.07 628.92 139.57 625.68 145.61 C 623.24 149.64 623.54 154.53 623.45 159.06 C 623.61 166.07 623.25 173.09 623.69 180.08 C 618.40 180.31 613.11 180.10 607.82 180.29 C 607.74 170.18 607.33 160.05 608.04 149.95 C 609.56 141.39 613.78 133.14 620.73 127.72 Z" />
</g>
<g id="#250d0728">
<path fill="#250d07" opacity="0.16" d=" M 45.95 213.21 C 47.93 212.39 50.07 211.56 52.18 212.41 C 50.72 213.27 49.23 214.09 47.75 214.91 C 47.15 214.34 46.55 213.77 45.95 213.21 Z" />
</g>
</svg>
